HIERARCHY
ROOT Hips
{
	OFFSET -3.958830 18.904000 13.208200
	CHANNELS 6 Xposition Yposition Zposition Zrotation Yrotation Xrotation 
	JOINT LHipJoint
	{
		OFFSET 0.000000 0.000000 0.000000
		CHANNELS 3 Zrotation Yrotation Xrotation
		JOINT LeftUpLeg
		{
			OFFSET 1.800000 -1.400000 0.085000
			CHANNELS 3 Zrotation Yrotation Xrotation
			JOINT LeftLeg
			{
				OFFSET 2.215000 -6.000000 0.000000
				CHANNELS 3 Zrotation Yrotation Xrotation
				JOINT LeftFoot
				{
					OFFSET 2.500000 -6.900000 0.000000
					CHANNELS 3 Zrotation Yrotation Xrotation
					JOINT LeftToeBase
					{
						OFFSET 0.200000 -0.500000 1.950000
						CHANNELS 3 Zrotation Yrotation Xrotation
						End Site
						{
							OFFSET 0.000000 0.000000 0.000000
						}
					}
				}
			}
		}
	}
	JOINT RHipJoint
	{
		OFFSET 0.000000 0.000000 0.000000
		CHANNELS 3 Zrotation Yrotation Xrotation
		JOINT RightUpLeg
		{
			OFFSET -1.800000 -1.400000 0.085000
			CHANNELS 3 Zrotation Yrotation Xrotation
			JOINT RightLeg
			{
				OFFSET -2.215000 -6.000000 0.000000
				CHANNELS 3 Zrotation Yrotation Xrotation
				JOINT RightFoot
				{
					OFFSET -2.500000 -6.900000 0.000000
					CHANNELS 3 Zrotation Yrotation Xrotation
					JOINT RightToeBase
					{
						OFFSET -0.200000 -0.500000 1.950000
						CHANNELS 3 Zrotation Yrotation Xrotation
						End Site
						{
							OFFSET 0.000000 0.000000 0.000000
						}
					}
				}
			}
		}
	}
	JOINT LowerBack
	{
		OFFSET 0.000000 0.000000 0.000000
		CHANNELS 3 Zrotation Yrotation Xrotation
		JOINT Spine
		{
			OFFSET -0.087000 1.940000 -0.288900
			CHANNELS 3 Zrotation Yrotation Xrotation
			JOINT Spine1
			{
				OFFSET 0.000000 1.950000 0.060000
				CHANNELS 3 Zrotation Yrotation Xrotation
				JOINT Neck
				{
					OFFSET 0.000000 0.000000 0.000000
					CHANNELS 3 Zrotation Yrotation Xrotation
					JOINT Neck1
					{
						OFFSET 0.000000 1.600000 0.340000
						CHANNELS 3 Zrotation Yrotation Xrotation
						JOINT Head
						{
							OFFSET 0.000000 1.667000 -0.240000
							CHANNELS 3 Zrotation Yrotation Xrotation
							End Site
							{
								OFFSET 0.000000 0.000000 0.000000
							}
						}
					}
				}
				JOINT LeftShoulder
				{
					OFFSET 0.000000 0.000000 0.000000
					CHANNELS 3 Zrotation Yrotation Xrotation
					JOINT LeftArm
					{
						OFFSET 2.700000 1.550000 -0.730000
						CHANNELS 3 Zrotation Yrotation Xrotation
						JOINT LeftForeArm
						{
							OFFSET 5.450000 0.000000 0.000000
							CHANNELS 3 Zrotation Yrotation Xrotation
							JOINT LeftHand
							{
								OFFSET 3.450000 0.000000 0.000000
								CHANNELS 3 Zrotation Yrotation Xrotation
								JOINT LeftHandIndex1
								{
									OFFSET 0.750000 0.000000 0.000000
									CHANNELS 3 Zrotation Yrotation Xrotation
									End Site
									{
										OFFSET 0.000000 0.000000 0.000000
									}
								}
							}
						}
					}
				}
				JOINT RightShoulder
				{
					OFFSET 0.000000 0.000000 0.000000
					CHANNELS 3 Zrotation Yrotation Xrotation
					JOINT RightArm
					{
						OFFSET -2.700000 1.550000 -0.730000
						CHANNELS 3 Zrotation Yrotation Xrotation
						JOINT RightForeArm
						{
							OFFSET -5.450000 0.000000 0.000000
							CHANNELS 3 Zrotation Yrotation Xrotation
							JOINT RightHand
							{
								OFFSET -3.450000 0.000000 0.000000
								CHANNELS 3 Zrotation Yrotation Xrotation
								JOINT RightHandIndex1
								{
									OFFSET -0.750000 0.000000 0.000000
									CHANNELS 3 Zrotation Yrotation Xrotation
									End Site
									{
										OFFSET 0.000000 0.000000 0.000000
									}
								}
							}
						}
					}
				}
			}
		}
	}
}
MOTION
Frames: 12
Frame Time: 0.016667
-0.257050 18.671870 -0.937960 -9.865199 5.672088 -6.617540 -15.024513 13.143404 2.283206 5.666217 -1.941008 -14.735768 -2.561453 6.529925 24.507315 -0.555621 4.959782 2.998465 -0.035530 -0.327690 -0.066110 18.469056 -9.915628 4.574861 -9.173849 8.668143 -42.169781 10.171606 -13.091191 48.466342 -0.762745 -7.812829 1.741625 -0.069390 0.594550 0.051030 -4.146577 -1.724324 -8.259180 14.648644 -4.826770 27.900890 -4.914287 -1.152800 12.037174 3.453146 1.972929 -8.992576 0.736532 -2.712349 44.740016 -0.998330 -2.848120 -0.361720 -6.876419 5.345331 1.624839 -24.513793 -2.231146 0.939603 117.920866 -64.997942 -99.081755 -4.139850 2.158084 0.426910 0.300660 -0.289460 0.134440 0.456600 -7.326703 6.021459 27.779090 -7.731115 -4.415946 -123.381298 66.030186 -111.048950 2.133213 -1.074895 -0.447780 0.455870 0.270540 -0.140750 
-0.252510 18.659190 -1.010230 -11.285978 5.550872 -7.113942 -14.988671 13.010146 2.101844 6.390582 -1.814798 -14.737474 -1.529552 6.182857 24.185217 -0.594223 4.850433 3.043770 -0.077880 -0.391650 -0.069990 18.555794 -9.674767 4.967905 -9.791161 9.897604 -45.319149 11.700906 -14.735631 51.443084 -0.930283 -8.563687 1.504979 -0.102270 0.594680 0.042250 -4.303672 -1.616019 -8.362087 17.057826 -6.193571 30.742356 -6.211692 -1.572882 11.209054 3.748720 1.781084 -9.046929 0.770687 -2.586545 43.005202 -1.422570 -2.305490 -0.729940 -6.918351 5.136480 1.542149 -23.533683 -1.727140 0.521204 120.121926 -65.392583 -102.834281 -4.154216 2.286653 0.448350 0.297300 -0.299930 0.110570 -0.195666 -7.126690 6.266720 29.491193 -7.273252 -5.010351 -125.250541 65.424253 -113.013752 2.125349 -1.201550 -0.475450 0.454110 0.293350 -0.160640 
-0.203480 18.613740 -1.114700 -14.393516 6.126010 -6.681796 -14.918018 12.625142 1.792421 7.868329 -1.885980 -15.988276 -0.020823 5.545286 23.490891 -0.617314 4.594545 3.156757 -0.106090 -0.430400 -0.090850 18.747643 -9.216600 5.673777 -12.621568 11.034158 -52.067880 16.467885 -19.117733 55.075355 -1.283006 -10.055264 1.060337 -0.132700 0.619260 0.062310 -4.652703 -1.277242 -8.515910 23.094864 -9.105531 32.480376 -8.468264 -2.413528 10.157707 4.355401 1.582451 -8.888321 0.905111 -3.138868 40.287014 -2.547310 -2.211300 -0.033360 -7.340388 5.034635 1.267187 -23.224929 -2.463470 0.634529 123.593347 -65.890467 -108.015485 -4.163931 2.516489 0.422090 0.321630 -0.316190 0.125540 -1.117410 -7.346614 6.630612 32.019149 -7.078382 -5.599472 -130.053532 64.319099 -118.292015 2.102271 -1.517166 -0.470990 0.428080 0.287370 -0.145680 
-0.166410 18.568230 -1.239020 -17.528708 5.588672 -8.654744 -14.925142 12.537935 1.488877 10.543561 -1.409637 -14.474099 0.660622 5.384088 22.244088 -0.596599 4.579040 3.177171 -0.174550 -0.519710 -0.134090 18.806072 -8.812138 6.202145 -15.336903 11.985343 -56.216748 21.837768 -23.674675 57.538339 -1.646628 -11.401824 0.703998 -0.200180 0.637280 0.075010 -4.678333 -1.361829 -8.626451 27.483633 -12.426044 38.720313 -10.464825 -3.078962 8.329407 4.937506 1.066481 -8.874556 0.660143 -2.766737 36.914441 -2.339570 -1.638100 -1.133980 -6.595981 5.544909 0.811034 -23.026152 -2.988412 0.206816 127.307157 -66.794993 -114.189258 -4.156104 2.728475 0.439740 0.323680 -0.326910 0.105650 -3.227516 -7.268801 7.302740 36.679812 -5.482389 -6.379865 -133.274224 63.273394 -121.917043 2.080309 -1.647276 -0.480570 0.409620 0.325630 -0.148470 
-0.126570 18.480370 -1.337500 -20.829596 3.353818 -9.058099 -14.910361 12.223525 1.186070 13.826591 -0.985820 -13.452736 0.442575 5.524682 20.572332 -0.617665 4.667153 3.165061 -0.270310 -0.618980 -0.226340 18.940245 -8.245495 6.891206 -19.400885 13.209283 -62.932770 29.554802 -29.872232 59.353477 -2.090259 -12.971792 0.334850 -0.238320 0.721370 0.062240 -4.827255 -1.269690 -8.772838 32.458114 -15.866890 42.623058 -13.153328 -3.699579 6.831461 5.129124 -0.934385 -8.385790 -2.071183 -1.075236 33.292240 -1.822810 -1.279260 -2.730630 -5.376333 7.605040 0.246886 -23.798699 -3.571244 0.612041 127.497470 -68.266590 -116.105887 -4.221580 2.734503 0.440760 0.356200 -0.380750 0.086780 -5.077629 -7.630455 7.339083 40.793050 -2.114609 -5.723875 -136.383217 63.024594 -125.630960 2.024910 -1.716418 -0.533900 0.460630 0.407370 -0.138850 
-0.105460 18.352830 -1.401840 -23.607820 1.482532 -8.202840 -14.888163 11.853133 0.968255 16.580331 -0.797344 -13.325455 0.488938 5.537741 19.281542 -0.530559 4.628054 3.196056 -0.275230 -0.598210 -0.279390 19.078424 -7.782595 7.479920 -23.469695 13.220947 -70.188008 36.613137 -36.315269 60.667061 -2.518789 -14.321961 0.055236 -0.244160 0.754610 0.046980 -5.021007 -1.027446 -8.917991 36.966522 -18.864339 43.806674 -16.110803 -4.335750 5.581726 5.065870 -2.758807 -8.251427 -4.616916 0.422444 30.859890 -0.404060 -1.561400 -2.199410 -4.649852 8.893604 0.156985 -24.723547 -4.031196 1.074478 125.127461 -69.148393 -113.872297 -4.215914 2.690053 0.376860 0.355650 -0.405850 0.127210 -5.958665 -7.234230 7.509542 44.779738 0.388718 -5.007436 -142.132728 64.579571 -134.807681 1.996603 -1.923996 -0.506120 0.448730 0.378290 -0.082960 
-0.110870 18.181250 -1.444190 -25.837666 -0.387407 -6.584892 -14.935687 11.551938 0.780927 18.553917 -0.703352 -13.809534 1.118128 5.395178 18.547947 -0.441908 4.553225 3.214678 -0.208660 -0.494920 -0.292650 19.167472 -7.163607 8.122187 -28.934776 11.659329 -79.034780 46.280319 -43.768555 59.783407 -2.932778 -15.283036 -0.104506 -0.215740 0.747560 0.086570 -5.069117 -1.173566 -9.129519 39.011172 -19.817306 44.101198 -16.496149 -3.942139 4.683981 4.777895 -3.789999 -8.368538 -6.113446 1.452552 29.492192 0.348910 -1.514350 -2.130020 -4.840648 9.034698 0.418230 -25.701628 -3.659788 1.197988 125.775480 -71.190067 -116.786539 -4.159185 2.874285 0.322580 0.348210 -0.374280 0.194920 -5.325795 -6.253864 7.221025 46.498050 1.828298 -4.798872 -145.991472 67.882709 -142.196843 1.968698 -2.058569 -0.428890 0.401080 0.310600 -0.022330 
-0.121020 18.008210 -1.467520 -26.607937 -1.228651 -6.999361 -14.963739 11.386472 0.614853 19.884030 -0.590186 -12.484208 0.999737 5.667229 18.832211 -0.433332 4.771789 3.144570 -0.212180 -0.532100 -0.297670 19.224917 -6.778608 8.512394 -32.971121 9.309166 -84.538585 52.888832 -52.139933 61.795860 -3.270030 -16.132252 -0.247207 -0.219770 0.750140 0.049910 -5.109732 -1.305379 -9.269895 39.234180 -21.076234 46.055051 -16.956369 -4.638555 3.548921 4.205979 -5.193767 -8.583186 -8.545242 2.536791 28.684910 2.432570 -2.639600 -2.448840 -5.095129 8.184747 0.685727 -26.486914 -4.692848 1.513014 118.574330 -73.026750 -109.767625 -4.184229 2.379157 0.353890 0.308010 -0.402630 0.188260 -4.002674 -4.531010 7.050460 49.487834 2.662258 -5.625520 -150.632215 72.271206 -150.481414 1.911725 -2.080567 -0.463920 0.414740 0.321930 -0.031980 
-0.136220 17.845970 -1.494710 -27.572761 -1.894085 -7.718789 -14.983704 11.383291 0.525336 21.286927 -0.415826 -11.445608 1.323120 5.920168 20.014279 -0.338309 4.942781 3.037832 -0.129120 -0.412110 -0.272220 19.225514 -6.604485 8.637660 -33.985970 8.428305 -87.102691 57.126509 -59.717324 64.393259 -3.594807 -16.641818 -0.301433 -0.194200 0.656370 0.066090 -5.091863 -1.496957 -9.338664 39.304774 -22.196420 47.155643 -16.991461 -5.033019 3.768287 4.073675 -6.060568 -9.307149 -10.485256 2.820061 29.467105 3.546080 -3.318690 -4.821840 -7.026436 4.541680 1.101169 -26.671148 -5.237532 -0.156576 105.474153 -74.716644 -93.064435 -4.020446 0.382333 0.374620 0.228870 -0.318900 0.210410 -1.792806 -0.529261 7.538010 52.236518 2.077274 -8.748050 -154.896977 76.877294 -158.486924 1.881721 -2.052771 -0.382670 0.372170 0.265030 -0.006620 
-0.161280 17.684840 -1.514910 -26.903256 -5.212656 -7.791733 -15.014978 11.616778 0.514869 21.034482 0.095317 -10.251418 1.298125 6.436442 21.985664 -0.261103 5.142129 2.902605 -0.020540 -0.285070 -0.157720 19.130903 -6.574426 8.587178 -33.148802 12.502192 -88.161539 50.399331 -65.792888 76.468969 -4.261128 -18.678017 -0.672025 -0.176720 0.492400 0.087460 -4.981312 -1.842219 -9.376194 36.283359 -19.819061 48.994974 -14.927954 -4.216393 2.808945 3.934423 -6.342957 -9.248999 -12.165429 2.942692 33.664145 3.471110 -3.131910 -8.166830 -10.112557 -0.552355 -0.167064 -27.549167 -2.652033 -9.605168 81.103179 -86.637687 -74.567630 -3.292977 -0.889464 0.457410 0.115650 -0.180830 0.188620 1.592985 4.452688 7.708516 53.020475 0.739699 -20.490991 119.740725 82.450866 111.074296 1.610274 1.606874 -0.297040 0.325790 0.202580 -0.030570 
-0.192830 17.518300 -1.561170 -24.777620 -9.976083 -6.900619 -15.039056 11.982525 0.641203 18.796014 0.528764 -11.088208 1.082837 7.297403 26.248760 -0.224945 5.515165 2.703199 0.055740 -0.201030 -0.087680 18.959772 -6.803460 8.236981 -29.591754 19.653603 -86.959977 36.287096 -67.163425 94.008941 -5.109851 -22.038473 -1.239002 -0.150560 0.391940 0.092820 -4.802237 -2.129522 -9.321608 31.152636 -15.395263 50.265781 -12.714044 -2.489814 1.711218 3.565765 -6.628443 -9.706983 -14.288289 3.991713 37.903098 4.716640 -3.118870 -10.783630 -15.478045 -4.614048 0.354545 -25.608419 -1.731309 -11.543514 28.040322 -86.007792 -28.821939 -3.373832 2.786688 0.550340 0.030080 -0.086430 0.166570 7.814649 9.108657 8.395951 51.609819 0.109727 -16.739388 12.427795 84.179910 4.477469 1.827660 -1.639406 -0.263500 0.327200 0.186020 -0.058170 
-0.236210 17.370700 -1.558940 -24.590975 -16.336125 -5.216449 -15.013193 12.339999 0.972238 18.847732 1.051128 -12.710017 0.536043 8.655424 30.565153 -0.083738 6.077141 2.409843 0.198070 -0.013880 0.027400 18.790134 -7.409526 7.357053 -16.855965 30.016685 -77.812397 21.961701 -59.582553 106.879568 -5.575762 -24.017741 -1.557955 -0.095770 0.248560 0.091700 -4.702169 -2.059545 -9.178255 28.783810 -11.672155 48.634391 -11.900041 -0.049275 0.309820 3.361661 -7.116813 -9.897417 -17.066932 6.233606 44.395790 5.525730 -2.108280 -13.152790 -19.914121 -5.559708 0.466354 -26.788079 -1.445323 -11.392117 -0.040281 -82.803896 -4.669829 -3.346881 3.122973 0.619940 -0.078820 0.051830 0.174420 12.502154 11.368328 8.165283 50.915068 0.179918 -17.683521 12.334436 71.172909 3.809916 1.900169 -1.472248 -0.179230 0.313660 0.098680 -0.064350 
